<?xml version="1.0" encoding="utf-8"?>
<!DOCTYPE svg PUBLIC "-//W3C//DTD SVG 20010904//EN" "http://www.w3.org/TR/2001/REC-SVG-20010904/DTD/svg10.dtd">
<svg version="1.0" width="349.5pt" height="349.5pt" viewBox="0 0 349.5 349.5" preserveAspectRatio="xMidYMid meet" xmlns="http://www.w3.org/2000/svg">
  <g transform="translate(0,349.5)scale(.075,.075)">
    <path id="path1" d="M 2270 -4649 c -14 5 -36 20 -48 32 -49 45 -52 62 -52 290 0 206 1 215 22 247 39 57 72 75 138 75 66 0 99 -18 138 -75 21 -32 22 -41 22 -250 0 -209 -1 -218 -22 -250 -13 -18 -35 -42 -50 -53 -31 -23 -111 -32 -148 -16 z M 2270 -3649 c -14 5 -36 20 -48 32 -49 45 -52 62 -52 290 0 206 1 215 22 247 39 57 72 75 138 75 66 0 99 -18 138 -75 21 -32 22 -41 22 -250 0 -209 -1 -218 -22 -250 -13 -18 -35 -42 -50 -53 -31 -23 -111 -32 -148 -16 z M 2265 -2646 c -38 17 -83 69 -91 104 -10 48 -13 52 -37 52 -29 0 -83 35 -111 73 -29 40 -29 134 0 173 29 39 66 65 105 73 28 6 34 12 40 40 8 39 34 76 73 105 20 16 42 21 86 21 44 0 66 -5 86 -21 39 -29 65 -66 73 -105 6 -28 12 -34 40 -40 39 -8 76 -34 105 -73 29 -39 29 -133 0 -172 -29 -39 -66 -65 -105 -73 -28 -6 -34 -12 -40 -40 -8 -39 -34 -76 -71 -104 -33 -25 -113 -32 -153 -13 z M 80 -2468 c -57 39 -75 72 -75 138 0 66 18 99 75 138 32 21 41 22 250 22 209 0 218 -1 250 -22 57 -39 75 -72 75 -138 0 -66 -18 -99 -75 -138 -32 -21 -41 -22 -250 -22 -209 0 -218 1 -250 22 z M 1080 -2468 c -57 39 -75 72 -75 138 0 66 18 99 75 138 32 21 41 22 250 22 209 0 218 -1 250 -22 57 -39 75 -72 75 -138 0 -66 -18 -99 -75 -138 -32 -21 -41 -22 -250 -22 -209 0 -218 1 -250 22 z M 3080 -2468 c -57 39 -75 72 -75 138 0 66 18 99 75 138 32 21 41 22 250 22 209 0 218 -1 250 -22 57 -39 75 -72 75 -138 0 -66 -18 -99 -75 -138 -32 -21 -41 -22 -250 -22 -209 0 -218 1 -250 22 z M 4080 -2468 c -57 39 -75 72 -75 138 0 66 18 99 75 138 32 21 41 22 250 22 209 0 218 -1 250 -22 57 -39 75 -72 75 -138 0 -66 -18 -99 -75 -138 -32 -21 -41 -22 -250 -22 -209 0 -218 1 -250 22 z M 2270 -1649 c -14 5 -36 20 -48 32 -49 45 -52 62 -52 290 0 206 1 215 22 247 39 57 72 75 138 75 66 0 99 -18 138 -75 21 -32 22 -41 22 -250 0 -209 -1 -218 -22 -250 -13 -18 -35 -42 -50 -53 -31 -23 -111 -32 -148 -16 z M 2270 -649 c -14 5 -36 20 -48 32 -49 45 -52 62 -52 290 0 206 1 215 22 247 39 57 72 75 138 75 66 0 99 -18 138 -75 21 -32 22 -41 22 -250 0 -209 -1 -218 -22 -250 -13 -18 -35 -42 -50 -53 -31 -23 -111 -32 -148 -16 z " />
  </g>
</svg>