<?xml version="1.0" encoding="utf-8"?>
<!DOCTYPE svg PUBLIC "-//W3C//DTD SVG 20010904//EN" "http://www.w3.org/TR/2001/REC-SVG-20010904/DTD/svg10.dtd">
<svg version="1.0" width="480pt" height="480pt" viewBox="0 0 480 480" preserveAspectRatio="xMidYMid meet" xmlns="http://www.w3.org/2000/svg">
  <g transform="translate(0,480)scale(.075,.075)">
    <path id="path1" d="M 3030 -5754 c -443 41 -830 187 -1180 448 -122 90 -346 314 -436 436 -183 245 -314 519 -384 798 -62 251 -63 265 -67 1000 l -4 672 640 0 641 0 0 -599 c 0 -658 3 -694 60 -854 91 -251 316 -476 567 -567 219 -79 447 -79 666 0 251 91 476 316 567 567 57 160 60 196 60 854 l 0 599 641 0 640 0 -4 -672 c -3 -579 -6 -688 -21 -778 -64 -385 -202 -714 -430 -1020 -90 -122 -314 -346 -436 -436 -307 -229 -650 -372 -1020 -429 -103 -15 -411 -27 -500 -19 z M 962 -1558 l 3 363 34 63 c 38 70 69 100 145 140 l 51 27 405 0 405 0 63 -34 c 70 -38 100 -69 140 -145 l 27 -51 3 -363 3 -362 -641 0 -641 0 3 362 z M 4162 -1558 l 3 363 34 63 c 38 70 69 100 145 140 l 51 27 405 0 405 0 63 -34 c 70 -38 100 -69 140 -145 l 27 -51 3 -363 3 -362 -641 0 -641 0 3 362 z " />
  </g>
</svg>